# xmcd
#
# Track frame offsets:
# 150
# 18830
# 37664
# 58929
#
# Disc length: 1006 seconds
#
#
# Revision: 0
# Processed by: cddbd v1.5.1PL0 Copyright (c) Steve Scherf et al.
# Submitted via: FreeRIP 2.941 
#
DISCID=2503ec04
DTITLE=Brad Paisley 2 - Time well Wasted (Target Bonus)
DYEAR=2005
DGENRE=Country
TTITLE0=Yes, You Will
TTITLE1=Hard To Say Hello
TTITLE2=Ode De Toilet (The Toilet Song)
TTITLE3=College (W/ Pat Green)
EXTD=Target Bonus Tracks 
EXTT0=
EXTT1=
EXTT2=
EXTT3=
PLAYORDER=
